Snow White and the Huntsman 2012 CAM READNFO XviD-26k
 
http://www.imdb.com/title/tt1735898/

Plot:

In a twist to the fairy tale, the Huntsman ordered to take
Snow White into the woods to be killed winds up becoming her
protector and mentor in a quest to vanquish the Evil Queen.

Sources - VIDEO: ....Thanks
AUDIO: ....Thanks

Video
ID : 0
Format : MPEG-4 Visual
Format profile : Advanced Simple@L5
Format settings, BVOP : 2
Format settings, QPel : No
Format settings, GMC : No warppoints
Format settings, Matrix : Default (H.263)
Codec ID : XVID
Codec ID/Hint : XviD
Duration : 1h 57mn
Bit rate : 1 300 Kbps
Width : 720 pixels
Height : 304 pixels
Display aspect ratio : 2.35:1
Frame rate : 25.000 fps
Color space : YUV
Chroma subsampling : 4:2:0
Bit depth : 8 bits
Scan type : Progressive
Compression mode : Lossy
Bits/(Pixel*Frame) : 0.238
Stream size : 1.06 GiB (80%)
Writing library : XviD 63

Audio
ID : 1
Format : MPEG Audio
Format version : Version 1
Format profile : Layer 3
Mode : Joint stereo
Mode extension : MS Stereo
Codec ID : 55
Codec ID/Hint : MP3
Duration : 1h 57mn
Bit rate mode : Constant
Bit rate : 320 Kbps
Channel(s) : 2 channels
Sampling rate : 44.1 KHz
Compression mode : Lossy
Stream size : 268 MiB (20%)
Alignment : Split accross interleaves
Interleave, duration : 6552 ms (163.80 video frames)
Writing library : LAME3.99r
Encoding settings : -m j -V 4 -q 2 -lowpass 20.5

Notes -

The video needed some crop for obvious reasons which i will not mention.... so 
that been said,the video and audio is very decent for a first cam and ithas arabic subs at the bottom...
so we denoised, cropped and rotated the video then synced the audio back to the encode. enjoy! until new source


Poster:

 
http://i.imgur.com/1MRs7.jpg


Screens:

 
http://i.imgur.com/33xx9.png

 
http://i.imgur.com/Yyocc.png

 
http://i.imgur.com/RMJGM.png


ENJOY!